<?xml version="1.0" encoding="utf-8"?>
<!-- Generator: Adobe Illustrator 18.0.0, SVG Export Plug-In . SVG Version: 6.00 Build 0)  -->
<!DOCTYPE svg PUBLIC "-//W3C//DTD SVG 1.1//EN" "http://www.w3.org/Graphics/SVG/1.1/DTD/svg11.dtd">
<svg version="1.1" id="Layer_1" xmlns="http://www.w3.org/2000/svg" xmlns:xlink="http://www.w3.org/1999/xlink" x="0px" y="0px"
	 viewBox="0 0 30 30" enable-background="new 0 0 30 30" xml:space="preserve">
<g>
	<g>
		<linearGradient id="SVGID_1_" gradientUnits="userSpaceOnUse" x1="15.5938" y1="0.9151" x2="15.5938" y2="25.1083">
			<stop  offset="0" style="stop-color:#FFFFFF"/>
			<stop  offset="1" style="stop-color:#EBEBEB"/>
		</linearGradient>
		<path fill="url(#SVGID_1_)" d="M15.7,10.7c-0.8-0.3-2.3-1.4-2.3-2.7c0-0.7,0.4-1.3,1.7-2.3c0.8-0.6,2-1.4,2-2.3
			c0-0.7-0.5-1.1-1.2-1.1c-1.3,0-2.1,1.1-2.3,1.1c-0.3,0-0.8-0.4-0.8-0.9c0-0.3,0.1-0.5,0.4-0.7c0.6-0.6,1.5-0.8,1.9-0.8
			c1.7,0,3.3,1.6,3.3,3.3c0,0.7-0.3,1.2-1,1.8c-0.7,0.6-2.3,1.5-2.3,2.4c0,0.7,0.3,1.1,0.9,1.7L15.7,10.7z"/>
	</g>
	<linearGradient id="SVGID_2_" gradientUnits="userSpaceOnUse" x1="15" y1="0.9147" x2="15" y2="25.1091">
		<stop  offset="0" style="stop-color:#FFFFFF"/>
		<stop  offset="1" style="stop-color:#EBEBEB"/>
	</linearGradient>
	<path fill="url(#SVGID_2_)" d="M20.4,16.3c0,0,0.5,2.5,0.5,2.7c0.1,1.3-0.5,1.9-1.6,2.1c-0.7,0.1-1.8,0.2-2.5,0
		c0,0,6.9,3.3,5.1,8.6c-0.7-0.9-1.4-2.1-2.2-2.9c-0.8-0.7-1.8-1.3-2.8-1.7c-1.2-0.5-2.5-0.9-3.8-1c-0.6-0.1-1.2-0.1-1.7,0
		c-0.2,0-1.4,0.3-1.3,0.5L9.6,22c0,0-0.3-2.6,3.7-2c0,0-3.9-2-5.2-5.1c0,0-0.9-2.9,0-4.9c0,0-0.2,3.6,4.7,5.7
		C12.9,15.7,18,18.3,20.4,16.3z"/>
	<linearGradient id="SVGID_3_" gradientUnits="userSpaceOnUse" x1="15.4816" y1="0.9161" x2="15.4816" y2="25.1077">
		<stop  offset="0" style="stop-color:#FFFFFF"/>
		<stop  offset="1" style="stop-color:#EBEBEB"/>
	</linearGradient>
	<circle fill="url(#SVGID_3_)" cx="15.5" cy="13.9" r="1.9"/>
</g>
</svg>
