<?xml version="1.0" encoding="utf-8"?>
<!-- Generator: Adobe Illustrator 18.0.0, SVG Export Plug-In . SVG Version: 6.00 Build 0)  -->
<!DOCTYPE svg PUBLIC "-//W3C//DTD SVG 1.1//EN" "http://www.w3.org/Graphics/SVG/1.1/DTD/svg11.dtd">
<svg version="1.1" id="Layer_1" xmlns="http://www.w3.org/2000/svg" xmlns:xlink="http://www.w3.org/1999/xlink" x="0px" y="0px"
	 viewBox="0 0 30 30" enable-background="new 0 0 30 30" xml:space="preserve">
<g>
	<linearGradient id="SVGID_1_" gradientUnits="userSpaceOnUse" x1="5.1673" y1="15.2192" x2="24.8327" y2="15.2192">
		<stop  offset="0" style="stop-color:#FFFFFF"/>
		<stop  offset="1" style="stop-color:#EBEBEB"/>
	</linearGradient>
	<path fill="url(#SVGID_1_)" d="M22.3,10.4c0,0,0.7,3.4,0.7,3.7c0.1,1.8-0.7,2.6-2.2,2.9c-1,0.2-2.4,0.3-3.4,0c0,0,9.3,4.5,7,11.6
		c-1-1.3-1.8-2.8-3-3.9c-1.1-1-2.4-1.7-3.8-2.3c-1.6-0.7-3.4-1.2-5.1-1.4c-0.8-0.1-1.6-0.1-2.4,0c-0.2,0-1.9,0.4-1.8,0.7l-0.7-3.7
		c0,0-0.5-3.5,5-2.7c0,0-5.3-2.8-7-6.9c0,0-1.3-3.9,0-6.6c0,0-0.3,4.8,6.4,7.8C12.1,9.6,19.1,13.1,22.3,10.4z"/>
	<g>
		<linearGradient id="SVGID_2_" gradientUnits="userSpaceOnUse" x1="10.2266" y1="5.9083" x2="20.8113" y2="5.9083">
			<stop  offset="0" style="stop-color:#FFFFFF"/>
			<stop  offset="1" style="stop-color:#EBEBEB"/>
		</linearGradient>
		<path fill-rule="evenodd" clip-rule="evenodd" fill="url(#SVGID_2_)" d="M11.7,4.5L11.7,4.5c-0.5,0.1-0.9,0.4-1.1,0.8L10.3,6
			c-0.2,0.6,0.1,1.3,0.7,1.5c0.6,0.2,1.3-0.1,1.5-0.7l0.3-0.7c0.2-0.5,0-1-0.3-1.3c0.9-2,3.1-3.1,4.9-2.4c1.9,0.7,2.9,2.8,2.3,5
			c-0.5,0-0.9,0.3-1.1,0.8l-0.3,0.7c-0.2,0.6,0.1,1.3,0.7,1.5c0.6,0.2,1.3-0.1,1.5-0.7l0.3-0.7c0.2-0.5,0-1-0.4-1.3l0-0.1
			c0.9-2.4-0.4-5.1-2.8-5.9C15.2,0.8,12.5,2.1,11.7,4.5L11.7,4.5z"/>
	</g>
	<linearGradient id="SVGID_3_" gradientUnits="userSpaceOnUse" x1="13.0238" y1="7.1951" x2="18.2809" y2="7.1951">
		<stop  offset="0" style="stop-color:#FFFFFF"/>
		<stop  offset="1" style="stop-color:#EBEBEB"/>
	</linearGradient>
	<circle fill="url(#SVGID_3_)" cx="15.7" cy="7.2" r="2.6"/>
</g>
</svg>
