<?xml version="1.0" encoding="utf-8"?>
<!-- Generator: Adobe Illustrator 18.0.0, SVG Export Plug-In . SVG Version: 6.00 Build 0)  -->
<!DOCTYPE svg PUBLIC "-//W3C//DTD SVG 1.1//EN" "http://www.w3.org/Graphics/SVG/1.1/DTD/svg11.dtd">
<svg version="1.1" id="Layer_1" xmlns="http://www.w3.org/2000/svg" xmlns:xlink="http://www.w3.org/1999/xlink" x="0px" y="0px"
	 viewBox="0 0 30 30" enable-background="new 0 0 30 30" xml:space="preserve">
<g>
	<linearGradient id="SVGID_1_" gradientUnits="userSpaceOnUse" x1="14.8256" y1="1.9304" x2="14.8256" y2="28.7938">
		<stop  offset="0" style="stop-color:#FFFFFF"/>
		<stop  offset="1" style="stop-color:#EBEBEB"/>
	</linearGradient>
	<path fill="url(#SVGID_1_)" d="M27.2,14.4l-0.1-1.3c0,0-10.4-11.1-12.2-12.3c0,0-10,9.2-12.2,12.4c-0.3,0.5-0.2,0.8-0.2,1.2v0.2
		c0,0.6,0.5,1.1,1.1,1.1h2.5v11.4c0,1.2,1,2.1,2.3,2.1h13c1.3,0,2.3-0.9,2.3-2.1V15.7h2.5c0.6,0,1.1-0.5,1.1-1.1L27.2,14.4
		C27.2,14.4,27.2,14.4,27.2,14.4z M19,19.1c0,0,0.4,1.9,0.4,2.1c0.1,1-0.4,1.5-1.2,1.6c-0.5,0.1-1.4,0.2-1.9,0c0,0,5.2,2.5,3.9,6.5
		c-0.6-0.7-1-1.6-1.7-2.2c-0.6-0.6-1.3-1-2.1-1.3c-0.9-0.4-1.9-0.7-2.9-0.8c-0.4-0.1-0.9-0.1-1.3,0c-0.1,0-1.1,0.2-1,0.4l-0.4-2.1
		c0,0-0.3-2,2.8-1.5c0,0-3-1.5-3.9-3.9c0,0-0.7-2.2,0-3.7c0,0-0.2,2.7,3.6,4.4C13.3,18.7,17.2,20.6,19,19.1z M16.8,17.3
		c0,0.8-0.7,1.5-1.5,1.5c-0.8,0-1.5-0.7-1.5-1.5c0-0.8,0.7-1.5,1.5-1.5C16.1,15.8,16.8,16.5,16.8,17.3z"/>
</g>
</svg>
