<?xml version="1.0" encoding="utf-8"?>
<!-- Generator: Adobe Illustrator 18.0.0, SVG Export Plug-In . SVG Version: 6.00 Build 0)  -->
<!DOCTYPE svg PUBLIC "-//W3C//DTD SVG 1.1//EN" "http://www.w3.org/Graphics/SVG/1.1/DTD/svg11.dtd">
<svg version="1.1" id="Layer_1" xmlns="http://www.w3.org/2000/svg" xmlns:xlink="http://www.w3.org/1999/xlink" x="0px" y="0px"
	 viewBox="0 0 30 30" enable-background="new 0 0 30 30" xml:space="preserve">
<g>
	<linearGradient id="SVGID_1_" gradientUnits="userSpaceOnUse" x1="2" y1="8" x2="27" y2="8">
		<stop  offset="0" style="stop-color:#FFFFFF"/>
		<stop  offset="1" style="stop-color:#EBEBEB"/>
	</linearGradient>
	<path fill-rule="evenodd" clip-rule="evenodd" fill="url(#SVGID_1_)" d="M27,8c0,1.1-0.9,2-2,2H4c-1.1,0-2-0.9-2-2l0,0
		c0-1.1,0.9-2,2-2h21C26.1,6,27,6.9,27,8L27,8z"/>
	<linearGradient id="SVGID_2_" gradientUnits="userSpaceOnUse" x1="2" y1="15" x2="27" y2="15">
		<stop  offset="0" style="stop-color:#FFFFFF"/>
		<stop  offset="1" style="stop-color:#EBEBEB"/>
	</linearGradient>
	<path fill-rule="evenodd" clip-rule="evenodd" fill="url(#SVGID_2_)" d="M27,15c0,1.1-0.9,2-2,2H4c-1.1,0-2-0.9-2-2l0,0
		c0-1.1,0.9-2,2-2h21C26.1,13,27,13.9,27,15L27,15z"/>
	<linearGradient id="SVGID_3_" gradientUnits="userSpaceOnUse" x1="2" y1="22" x2="27" y2="22">
		<stop  offset="0" style="stop-color:#FFFFFF"/>
		<stop  offset="1" style="stop-color:#EBEBEB"/>
	</linearGradient>
	<path fill-rule="evenodd" clip-rule="evenodd" fill="url(#SVGID_3_)" d="M27,22c0,1.1-0.9,2-2,2H4c-1.1,0-2-0.9-2-2l0,0
		c0-1.1,0.9-2,2-2h21C26.1,20,27,20.9,27,22L27,22z"/>
</g>
</svg>
