<?xml version="1.0" encoding="utf-8"?>
<!-- Generator: Adobe Illustrator 18.0.0, SVG Export Plug-In . SVG Version: 6.00 Build 0)  -->
<!DOCTYPE svg PUBLIC "-//W3C//DTD SVG 1.1//EN" "http://www.w3.org/Graphics/SVG/1.1/DTD/svg11.dtd">
<svg version="1.1" id="Layer_1" xmlns="http://www.w3.org/2000/svg" xmlns:xlink="http://www.w3.org/1999/xlink" x="0px" y="0px"
	 viewBox="0 0 30 30" enable-background="new 0 0 30 30" xml:space="preserve">
<g>
	<path fill-rule="evenodd" clip-rule="evenodd" fill="#E0E0DF" d="M26,23.8l-3.5-3.5c1.7-1.9,2.7-4.4,2.7-7.1
		c0-6-4.8-10.8-10.8-10.8c-6,0-10.8,4.9-10.8,10.8c0,6,4.8,10.8,10.8,10.8c1.5,0,2.9-0.3,4.2-0.8l4.1,4.1c0.7,0.7,2.1,0.6,3-0.4
		C26.6,25.9,26.7,24.5,26,23.8L26,23.8z M14.4,19.2c-3.3,0-6-2.7-6-6c0-3.3,2.7-6,6-6c3.3,0,6,2.7,6,6
		C20.4,16.5,17.7,19.2,14.4,19.2L14.4,19.2z"/>
</g>
</svg>
