<?xml version="1.0" encoding="utf-8"?>
<!-- Generator: Adobe Illustrator 18.0.0, SVG Export Plug-In . SVG Version: 6.00 Build 0)  -->
<!DOCTYPE svg PUBLIC "-//W3C//DTD SVG 1.1//EN" "http://www.w3.org/Graphics/SVG/1.1/DTD/svg11.dtd">
<svg version="1.1" id="Layer_1" xmlns="http://www.w3.org/2000/svg" xmlns:xlink="http://www.w3.org/1999/xlink" x="0px" y="0px"
	 viewBox="0 0 30 30" enable-background="new 0 0 30 30" xml:space="preserve">
<g>
	<linearGradient id="SVGID_1_" gradientUnits="userSpaceOnUse" x1="4.4897" y1="15" x2="25.5103" y2="15">
		<stop  offset="0" style="stop-color:#FFFFFF"/>
		<stop  offset="1" style="stop-color:#EBEBEB"/>
	</linearGradient>
	<path fill="url(#SVGID_1_)" d="M9.6,6.9c0,1.5-1.2,2.7-2.7,2.7c-0.4,0-0.8-0.1-1.1-0.2c-0.6,0.9-1,1.9-1.3,3
		c1.3,0.2,2.4,1.3,2.4,2.7c0,1.4-1,2.5-2.4,2.7c0.3,1.1,0.7,2.1,1.3,3c0.3-0.2,0.7-0.2,1.1-0.2c1.5,0,2.7,1.2,2.7,2.7
		c0,0.4-0.1,0.8-0.2,1.1c0.9,0.6,1.9,1,3,1.3c0.2-1.3,1.3-2.4,2.7-2.4c1.4,0,2.5,1,2.7,2.4c1.1-0.3,2.1-0.7,3-1.3
		c-0.2-0.3-0.2-0.7-0.2-1.1c0-1.5,1.2-2.7,2.7-2.7c0.4,0,0.8,0.1,1.1,0.2c0.6-0.9,1-1.9,1.3-3c-1.3-0.2-2.4-1.3-2.4-2.7
		c0-1.4,1-2.5,2.4-2.7c-0.3-1.1-0.7-2.1-1.3-3c-0.3,0.1-0.7,0.2-1.1,0.2c-1.5,0-2.7-1.2-2.7-2.7c0-0.4,0.1-0.8,0.2-1.1
		c-0.9-0.6-1.9-1-3-1.3c-0.2,1.3-1.3,2.4-2.7,2.4c-1.4,0-2.5-1-2.7-2.4c-1.1,0.3-2.1,0.7-3,1.3C9.5,6.1,9.6,6.5,9.6,6.9L9.6,6.9z
		 M15,10.9c2.2,0,4.1,1.8,4.1,4.1c0,2.2-1.8,4.1-4.1,4.1c-2.3,0-4.1-1.8-4.1-4.1C10.9,12.8,12.8,10.9,15,10.9L15,10.9z"/>
</g>
</svg>
